<?xml version="1.0" encoding="UTF-8"?>
<!DOCTYPE svg PUBLIC "-//W3C//DTD SVG 1.1//EN" "http://www.w3.org/Graphics/SVG/1.1/DTD/svg11.dtd">
<svg xmlns="http://www.w3.org/2000/svg" version="1.1" width="716px" height="267px" style="shape-rendering:geometricPrecision; text-rendering:geometricPrecision; image-rendering:optimizeQuality; fill-rule:evenodd; clip-rule:evenodd" xmlns:xlink="http://www.w3.org/1999/xlink">
<g><path style="opacity:0.949" fill="#00cfde" d="M 93.5,22.5 C 87.1667,29.1667 80.8333,35.8333 74.5,42.5C 51.495,46.1716 38.1617,59.505 34.5,82.5C 27.5,89.1667 20.5,95.8333 13.5,102.5C 13.5728,94.108 14.2394,85.7746 15.5,77.5C 34.1667,59.5 52.5,41.1667 70.5,22.5C 78.1953,21.3406 85.8619,21.3406 93.5,22.5 Z"/></g>
<g><path style="opacity:0.956" fill="#00c2be" d="M 204.5,21.5 C 196.833,29.5 189.167,37.5 181.5,45.5C 170.5,51.8333 161.833,60.5 155.5,71.5C 149.833,76.5 144.5,81.8333 139.5,87.5C 137.321,87.16 135.488,86.16 134,84.5C 132.729,81.5156 131.562,78.5156 130.5,75.5C 147.833,58.8333 164.833,41.8333 181.5,24.5C 188.97,22.1267 196.636,21.1267 204.5,21.5 Z"/></g>
<g><path style="opacity:0.944" fill="#00c0b8" d="M 204.5,21.5 C 210.422,21.7635 216.089,22.7635 221.5,24.5C 216.167,30.1667 210.833,35.8333 205.5,41.5C 197.268,41.5386 189.268,42.872 181.5,45.5C 189.167,37.5 196.833,29.5 204.5,21.5 Z"/></g>
<g><path style="opacity:0.929" fill="#00d1e2" d="M 70.5,22.5 C 52.5,41.1667 34.1667,59.5 15.5,77.5C 20.8393,46.1607 39.1727,27.8273 70.5,22.5 Z"/></g>
<g><path style="opacity:0.933" fill="#00ceda" d="M 93.5,22.5 C 95.099,22.2322 96.4324,22.5655 97.5,23.5C 91.1667,29.1667 85.1667,35.1667 79.5,41.5C 77.8828,42.038 76.2161,42.3713 74.5,42.5C 80.8333,35.8333 87.1667,29.1667 93.5,22.5 Z"/></g>
<g><path style="opacity:0.949" fill="#00cdd7" d="M 97.5,23.5 C 102.456,23.905 107.123,25.2383 111.5,27.5C 106.5,32.8333 101.5,38.1667 96.5,43.5C 90.9152,42.274 85.2485,41.6073 79.5,41.5C 85.1667,35.1667 91.1667,29.1667 97.5,23.5 Z"/></g>
<g><path style="opacity:0.93" fill="#00c4c3" d="M 181.5,24.5 C 164.833,41.8333 147.833,58.8333 130.5,75.5C 128.421,71.0074 126.088,66.674 123.5,62.5C 127.833,57.5 132.5,52.8333 137.5,48.5C 139.388,49.9397 141.055,51.6064 142.5,53.5C 150.552,41.9448 160.885,33.1114 173.5,27C 176.154,26.0594 178.821,25.2261 181.5,24.5 Z"/></g>
<g><path style="opacity:0.944" fill="#00bdb2" d="M 221.5,24.5 C 227.826,25.5043 233.492,27.8376 238.5,31.5C 233.833,36.5 229.167,41.5 224.5,46.5C 218.361,44.0488 212.028,42.3822 205.5,41.5C 210.833,35.8333 216.167,30.1667 221.5,24.5 Z"/></g>
<g><path style="opacity:0.941" fill="#00cad1" d="M 111.5,27.5 C 116.343,29.4176 120.677,32.0843 124.5,35.5C 120.167,40.5 115.5,45.1667 110.5,49.5C 106.096,46.9666 101.429,44.9666 96.5,43.5C 101.5,38.1667 106.5,32.8333 111.5,27.5 Z"/></g>
<g><path style="opacity:0.938" fill="#00bcad" d="M 238.5,31.5 C 240.027,31.427 241.027,32.0937 241.5,33.5C 236.5,37.8333 231.833,42.5 227.5,47.5C 226.391,47.4431 225.391,47.1098 224.5,46.5C 229.167,41.5 233.833,36.5 238.5,31.5 Z"/></g>
<g><path style="opacity:0.941" fill="#00baaa" d="M 241.5,33.5 C 245.051,35.1108 248.051,37.4442 250.5,40.5C 246.167,45.5 241.5,50.1667 236.5,54.5C 233.28,52.3971 230.28,50.0638 227.5,47.5C 231.833,42.5 236.5,37.8333 241.5,33.5 Z"/></g>
<g><path style="opacity:0.933" fill="#00c8cc" d="M 124.5,35.5 C 128.12,37.4528 131.12,40.1195 133.5,43.5C 129.167,48.5 124.5,53.1667 119.5,57.5C 116.474,54.8046 113.474,52.1379 110.5,49.5C 115.5,45.1667 120.167,40.5 124.5,35.5 Z"/></g>
<g><path style="opacity:0.94" fill="#00b7a5" d="M 250.5,40.5 C 254.238,43.9103 257.238,47.9103 259.5,52.5C 254.5,57.1667 249.5,61.8333 244.5,66.5C 242.259,62.251 239.592,58.251 236.5,54.5C 241.5,50.1667 246.167,45.5 250.5,40.5 Z"/></g>
<g><path style="opacity:0.921" fill="#00c7c8" d="M 133.5,43.5 C 135.587,44.5846 136.92,46.2512 137.5,48.5C 132.5,52.8333 127.833,57.5 123.5,62.5C 121.937,61.0552 120.604,59.3885 119.5,57.5C 124.5,53.1667 129.167,48.5 133.5,43.5 Z"/></g>
<g><path style="opacity:0.934" fill="#00b6a0" d="M 259.5,52.5 C 261.008,54.1815 262.008,56.1815 262.5,58.5C 257.5,63.8333 252.5,69.1667 247.5,74.5C 246.129,72.064 245.129,69.3973 244.5,66.5C 249.5,61.8333 254.5,57.1667 259.5,52.5 Z"/></g>
<g><path style="opacity:0.947" fill="#00b59d" d="M 262.5,58.5 C 263.738,60.2143 264.405,62.2143 264.5,64.5C 259.167,69.5 253.833,74.5 248.5,79.5C 247.962,77.8828 247.629,76.2161 247.5,74.5C 252.5,69.1667 257.5,63.8333 262.5,58.5 Z"/></g>
<g><path style="opacity:0.946" fill="#00b398" d="M 264.5,64.5 C 267.396,70.7491 269.062,77.4158 269.5,84.5C 262.833,90.8333 256.167,97.1667 249.5,103.5C 250.259,95.4915 249.925,87.4915 248.5,79.5C 253.833,74.5 259.167,69.5 264.5,64.5 Z"/></g>
<g><path style="opacity:0.8" fill="#00c1ba" d="M 155.5,71.5 C 153.77,75.8501 151.937,80.1834 150,84.5C 147.016,87.1001 143.516,88.1001 139.5,87.5C 144.5,81.8333 149.833,76.5 155.5,71.5 Z"/></g>
<g><path style="opacity:0.957" fill="#00cedb" d="M 34.5,82.5 C 34.5,83.8333 34.5,85.1667 34.5,86.5C 27.8333,92.8333 21.1667,99.1667 14.5,105.5C 13.8902,104.609 13.5569,103.609 13.5,102.5C 20.5,95.8333 27.5,89.1667 34.5,82.5 Z"/></g>
<g><path style="opacity:0.939" fill="#00b092" d="M 269.5,84.5 C 270.647,91.8624 270.647,99.1957 269.5,106.5C 258.5,117.167 247.5,127.833 236.5,138.5C 243.349,127.796 247.682,116.129 249.5,103.5C 256.167,97.1667 262.833,90.8333 269.5,84.5 Z"/></g>
<g><path style="opacity:0.942" fill="#00cdd7" d="M 34.5,86.5 C 33.4268,92.8497 33.4268,99.1831 34.5,105.5C 28.8333,110.833 23.1667,116.167 17.5,121.5C 15.8647,116.291 14.8647,110.958 14.5,105.5C 21.1667,99.1667 27.8333,92.8333 34.5,86.5 Z"/></g>
<g><path style="opacity:0.943" fill="#00cad1" d="M 34.5,105.5 C 35.5648,111.359 37.2315,117.026 39.5,122.5C 34.1667,127.167 29.1667,132.167 24.5,137.5C 21.4073,132.575 19.074,127.242 17.5,121.5C 23.1667,116.167 28.8333,110.833 34.5,105.5 Z"/></g>
<g><path style="opacity:0.932" fill="#00af8d" d="M 269.5,106.5 C 269.26,111.12 268.26,115.453 266.5,119.5C 248.14,137.194 230.14,155.194 212.5,173.5C 212.709,172.078 213.209,170.745 214,169.5C 222.5,159.807 230,149.474 236.5,138.5C 247.5,127.833 258.5,117.167 269.5,106.5 Z"/></g>
<g><path style="opacity:0.969" fill="#00ad8b" d="M 266.5,119.5 C 264.906,126.675 262.239,133.341 258.5,139.5C 243.5,153.833 228.833,168.5 214.5,183.5C 211.671,180.511 211.004,177.178 212.5,173.5C 230.14,155.194 248.14,137.194 266.5,119.5 Z"/></g>
<g><path style="opacity:0.949" fill="#00c8cc" d="M 39.5,122.5 C 41.1654,126.495 42.8321,130.495 44.5,134.5C 39.5,139.167 34.5,143.833 29.5,148.5C 27.5617,144.957 25.8951,141.29 24.5,137.5C 29.1667,132.167 34.1667,127.167 39.5,122.5 Z"/></g>
<g><path style="opacity:0.94" fill="#00c7c8" d="M 44.5,134.5 C 45.9744,135.436 46.9744,136.77 47.5,138.5C 42.5,143.167 37.5,147.833 32.5,152.5C 31.5116,151.205 30.5116,149.872 29.5,148.5C 34.5,143.833 39.5,139.167 44.5,134.5 Z"/></g>
<g><path style="opacity:0.901" fill="#fefffe" d="M 597.5,136.5 C 610.067,134.898 615.234,140.232 613,152.5C 609.825,158.18 604.992,160.346 598.5,159C 589.21,156.514 586.377,150.681 590,141.5C 592.17,139.177 594.67,137.51 597.5,136.5 Z"/></g>
<g><path style="opacity:0.936" fill="#fefffe" d="M 558.5,137.5 C 564.403,137.242 568.237,139.909 570,145.5C 570.98,180.894 570.647,216.227 569,251.5C 562.792,258.101 556.459,258.101 550,251.5C 549.83,249.285 549.163,247.285 548,245.5C 539.646,254.892 529.146,258.392 516.5,256C 502.801,252.636 493.968,244.136 490,230.5C 487.762,218.748 488.095,207.082 491,195.5C 499.366,177.067 513.533,169.9 533.5,174C 539.412,175.538 544.245,178.705 548,183.5C 548.333,170.833 548.667,158.167 549,145.5C 550.571,140.75 553.738,138.083 558.5,137.5 Z M 524.5,189.5 C 541.024,189.357 549.357,197.69 549.5,214.5C 549.694,224.273 546.027,232.106 538.5,238C 526.813,242.667 517.98,239.501 512,228.5C 507.811,216.192 509.311,204.692 516.5,194C 519.099,192.205 521.766,190.705 524.5,189.5 Z"/></g>
<g><path style="opacity:0.946" fill="#fefffe" d="M 642.5,137.5 C 647.166,137.58 650.666,139.58 653,143.5C 653.333,164.833 653.667,186.167 654,207.5C 664.137,196.363 674.637,185.529 685.5,175C 689.711,173.466 694.044,173.133 698.5,174C 703.653,178.609 703.82,183.442 699,188.5C 690.802,196.363 682.969,204.53 675.5,213C 684.667,222.833 693.833,232.667 703,242.5C 706.463,253.044 702.63,257.544 691.5,256C 689.754,255.529 688.087,254.862 686.5,254C 675.782,242.737 664.948,231.57 654,220.5C 653.956,231.597 653.289,242.597 652,253.5C 645.706,257.789 639.706,257.456 634,252.5C 632.353,216.56 632.02,180.56 633,144.5C 634.706,140.074 637.873,137.74 642.5,137.5 Z"/></g>
<g><path style="opacity:0.934" fill="#00c5c4" d="M 47.5,138.5 C 50.4285,142.694 53.0952,147.027 55.5,151.5C 50.5,155.833 45.8333,160.5 41.5,165.5C 37.7629,161.698 34.7629,157.365 32.5,152.5C 37.5,147.833 42.5,143.167 47.5,138.5 Z"/></g>
<g><path style="opacity:0.897" fill="#00ac86" d="M 258.5,139.5 C 250.378,155.571 240.378,170.404 228.5,184C 223.591,187.449 218.925,187.282 214.5,183.5C 228.833,168.5 243.5,153.833 258.5,139.5 Z"/></g>
<g><path style="opacity:0.939" fill="#00c2be" d="M 55.5,151.5 C 58.3993,154.952 61.0659,158.618 63.5,162.5C 59.1667,167.5 54.5,172.167 49.5,176.5C 46.1021,173.373 43.4354,169.707 41.5,165.5C 45.8333,160.5 50.5,155.833 55.5,151.5 Z"/></g>
<g><path style="opacity:0.932" fill="#00c0b8" d="M 63.5,162.5 C 67.1803,166.183 70.5136,170.183 73.5,174.5C 68.5,178.833 63.8333,183.5 59.5,188.5C 55.7006,184.909 52.3673,180.909 49.5,176.5C 54.5,172.167 59.1667,167.5 63.5,162.5 Z"/></g>
<g><path style="opacity:0.942" fill="#fefffe" d="M 302.5,172.5 C 315.157,170.919 324.491,175.586 330.5,186.5C 340.031,174.267 352.365,170.1 367.5,174C 378.012,178.197 383.512,186.031 384,197.5C 384.667,214.833 384.667,232.167 384,249.5C 380.394,256.42 374.894,258.254 367.5,255C 365.951,253.786 364.785,252.286 364,250.5C 363.912,233.128 363.246,215.795 362,198.5C 360.578,192.527 356.745,189.527 350.5,189.5C 342.608,190.024 337.442,194.024 335,201.5C 333.76,217.795 333.094,234.128 333,250.5C 329.945,255.635 325.445,257.468 319.5,256C 317.152,255.654 315.319,254.487 314,252.5C 312.709,235.566 312.042,218.566 312,201.5C 311.345,194.179 307.345,190.179 300,189.5C 291.579,190.585 286.246,195.251 284,203.5C 283.667,218.5 283.333,233.5 283,248.5C 281.827,253.765 278.494,256.431 273,256.5C 266.508,256.774 262.842,253.774 262,247.5C 261.833,236.667 261.667,225.833 261.5,215C 261.385,202.455 261.885,189.955 263,177.5C 267.091,173.695 271.924,172.528 277.5,174C 281.545,176.253 283.378,179.753 283,184.5C 287.969,177.776 294.469,173.776 302.5,172.5 Z"/></g>
<g><path style="opacity:0.939" fill="#fefffe" d="M 435.5,172.5 C 464.952,172.451 478.785,187.118 477,216.5C 476.5,217.667 475.667,218.5 474.5,219C 456.5,219.333 438.5,219.667 420.5,220C 423.078,233.072 431.078,239.905 444.5,240.5C 453.371,239.487 461.871,237.154 470,233.5C 472.873,233.598 474.873,234.932 476,237.5C 477.652,242.846 476.152,247.013 471.5,250C 452.087,259.272 433.087,258.606 414.5,248C 402.404,236.375 397.904,222.208 401,205.5C 404.911,186.42 416.411,175.42 435.5,172.5 Z M 437.5,187.5 C 451.528,186.863 458.861,193.529 459.5,207.5C 446.496,207.667 433.496,207.5 420.5,207C 422.171,196.839 427.838,190.339 437.5,187.5 Z"/></g>
<g><path style="opacity:0.956" fill="#fefffe" d="M 596.5,173.5 C 602.52,172.22 607.353,173.887 611,178.5C 611.667,202.5 611.667,226.5 611,250.5C 609.041,254.672 605.708,256.672 601,256.5C 595.879,256.043 592.545,253.377 591,248.5C 590.333,225.833 590.333,203.167 591,180.5C 591.938,177.402 593.772,175.069 596.5,173.5 Z"/></g>
<g><path style="opacity:0.935" fill="#00bdb1" d="M 73.5,174.5 C 77.1384,178.474 80.8051,182.474 84.5,186.5C 79.8333,191.5 75.1667,196.5 70.5,201.5C 66.4645,197.466 62.7978,193.132 59.5,188.5C 63.8333,183.5 68.5,178.833 73.5,174.5 Z"/></g>
<g><path style="opacity:0.913" fill="#00bcad" d="M 84.5,186.5 C 85.5,186.833 86.1667,187.5 86.5,188.5C 81.5,193.167 76.5,197.833 71.5,202.5C 70.8333,202.5 70.5,202.167 70.5,201.5C 75.1667,196.5 79.8333,191.5 84.5,186.5 Z"/></g>
<g><path style="opacity:0.931" fill="#00baab" d="M 86.5,188.5 C 89.1379,191.474 91.8046,194.474 94.5,197.5C 89.5,201.833 84.8333,206.5 80.5,211.5C 77.1667,208.833 74.1667,205.833 71.5,202.5C 76.5,197.833 81.5,193.167 86.5,188.5 Z"/></g>
<g><path style="opacity:0.921" fill="#00af8d" d="M 191.5,194.5 C 188.5,197.833 185.5,201.167 182.5,204.5C 177.837,205.829 174.837,208.829 173.5,213.5C 159.833,226.5 146.5,239.833 133.5,253.5C 130.62,253.06 127.954,252.06 125.5,250.5C 130.5,245.167 135.5,239.833 140.5,234.5C 142.527,234.662 144.527,234.495 146.5,234C 152.298,230.034 157.631,225.534 162.5,220.5C 161.626,218.253 161.292,215.92 161.5,213.5C 168.5,207.167 175.167,200.5 181.5,193.5C 184.766,192.736 188.1,193.069 191.5,194.5 Z"/></g>
<g><path style="opacity:0.854" fill="#00b090" d="M 181.5,193.5 C 175.167,200.5 168.5,207.167 161.5,213.5C 162.545,201.121 169.212,194.455 181.5,193.5 Z"/></g>
<g><path style="opacity:0.88" fill="#00ad8a" d="M 191.5,194.5 C 194.37,195.433 196.704,197.1 198.5,199.5C 195.5,201.833 192.833,204.5 190.5,207.5C 187.837,206.248 185.17,205.248 182.5,204.5C 185.5,201.167 188.5,197.833 191.5,194.5 Z"/></g>
<g><path style="opacity:0.946" fill="#00b8a5" d="M 94.5,197.5 C 97.859,200.529 101.192,203.529 104.5,206.5C 100.167,211.5 95.5,216.167 90.5,220.5C 87.141,217.471 83.8076,214.471 80.5,211.5C 84.8333,206.5 89.5,201.833 94.5,197.5 Z"/></g>
<g><path style="opacity:0.917" fill="#00ac86" d="M 198.5,199.5 C 202.312,202.566 204.646,206.566 205.5,211.5C 196.833,219.5 188.5,227.833 180.5,236.5C 178.345,236.372 176.345,236.872 174.5,238C 169.072,243.431 163.072,248.098 156.5,252C 152.368,253.9 148.034,254.733 143.5,254.5C 154.167,243.5 164.833,232.5 175.5,221.5C 184.215,226.979 190.215,224.812 193.5,215C 192.907,212.317 191.907,209.817 190.5,207.5C 192.833,204.5 195.5,201.833 198.5,199.5 Z"/></g>
<g><path style="opacity:0.93" fill="#00b6a0" d="M 104.5,206.5 C 106.5,207.833 108.167,209.5 109.5,211.5C 105.167,216.5 100.5,221.167 95.5,225.5C 93.5,224.167 91.8333,222.5 90.5,220.5C 95.5,216.167 100.167,211.5 104.5,206.5 Z"/></g>
<g><path style="opacity:0.931" fill="#00b59d" d="M 109.5,211.5 C 111.167,212.5 112.5,213.833 113.5,215.5C 109.167,220.167 104.833,224.833 100.5,229.5C 98.2512,228.92 96.5846,227.587 95.5,225.5C 100.5,221.167 105.167,216.5 109.5,211.5 Z"/></g>
<g><path style="opacity:0.882" fill="#00aa82" d="M 205.5,211.5 C 205.461,228.206 197.127,236.539 180.5,236.5C 188.5,227.833 196.833,219.5 205.5,211.5 Z"/></g>
<g><path style="opacity:0.974" fill="#00ad8a" d="M 173.5,213.5 C 173.287,216.451 173.954,219.118 175.5,221.5C 164.833,232.5 154.167,243.5 143.5,254.5C 140.234,255.264 136.9,254.931 133.5,253.5C 146.5,239.833 159.833,226.5 173.5,213.5 Z"/></g>
<g><path style="opacity:0.939" fill="#00b398" d="M 113.5,215.5 C 118.132,218.798 122.466,222.464 126.5,226.5C 122.167,231.5 117.5,236.167 112.5,240.5C 107.874,237.542 103.874,233.876 100.5,229.5C 104.833,224.833 109.167,220.167 113.5,215.5 Z"/></g>
<g><path style="opacity:0.935" fill="#00b092" d="M 126.5,226.5 C 129.621,228.448 132.621,230.615 135.5,233C 137.025,234.009 138.692,234.509 140.5,234.5C 135.5,239.833 130.5,245.167 125.5,250.5C 120.572,247.901 116.239,244.568 112.5,240.5C 117.5,236.167 122.167,231.5 126.5,226.5 Z"/></g>
</svg>
