<?xml version="1.0" standalone="no"?>
<!DOCTYPE svg PUBLIC "-//W3C//DTD SVG 20010904//EN"
 "http://www.w3.org/TR/2001/REC-SVG-20010904/DTD/svg10.dtd">
<svg version="1.0" xmlns="http://www.w3.org/2000/svg"
 width="267.000000pt" height="267.000000pt" viewBox="0 0 267.000000 267.000000"
 preserveAspectRatio="xMidYMid meet">
<metadata>
Created by potrace 1.14, written by Peter Selinger 2001-2017
</metadata>
<g transform="translate(0.000000,267.000000) scale(0.100000,-0.100000)"
fill="#000000" stroke="none">
<path d="M708 2445 c-2 -1 -35 -5 -74 -8 -78 -7 -185 -37 -255 -72 -217 -110
-342 -360 -341 -681 2 -258 154 -557 470 -924 83 -95 345 -354 458 -450 182
-157 234 -184 349 -185 66 0 89 4 135 26 30 15 69 38 85 53 17 15 53 44 80 65
45 35 55 39 110 38 197 -1 291 230 148 365 -80 76 -209 77 -287 2 -55 -54 -70
-89 -69 -167 l1 -69 -75 -59 c-84 -67 -109 -76 -162 -61 -102 31 -553 461
-744 710 -221 287 -309 486 -306 687 5 343 182 535 494 536 220 0 391 -127
489 -363 31 -75 40 -86 82 -93 52 -10 93 21 125 97 68 162 189 287 322 332 68
23 94 27 176 26 229 -1 384 -114 452 -329 32 -100 36 -282 9 -380 -38 -134
-139 -315 -277 -496 -82 -107 -85 -111 -80 -155 6 -55 34 -80 89 -80 46 0 71
22 164 145 213 283 318 528 317 740 0 122 -31 276 -75 380 -68 162 -224 295
-397 340 -86 22 -112 25 -206 26 -70 0 -107 -4 -200 -25 -43 -9 -129 -48 -178
-80 -59 -38 -152 -127 -188 -180 -13 -20 -27 -36 -31 -36 -3 0 -23 22 -43 50
-117 160 -311 264 -513 274 -28 2 -53 2 -54 1z m1090 -1855 c33 -33 43 -65 30
-101 -35 -94 -150 -102 -192 -14 -49 102 82 195 162 115z"/>
</g>
</svg>
